<?xml version="1.0" standalone="no"?><svg xmlns="http://www.w3.org/2000/svg" viewBox="0 0 1440 320"><path fill="#f7bc1a" fill-opacity="1" d="M0,128L6.2,133.3C12.3,139,25,149,37,170.7C49.2,192,62,224,74,208C86.2,192,98,128,111,101.3C123.1,75,135,85,148,122.7C160,160,172,224,185,250.7C196.9,277,209,267,222,234.7C233.8,203,246,149,258,149.3C270.8,149,283,203,295,208C307.7,213,320,171,332,133.3C344.6,96,357,64,369,90.7C381.5,117,394,203,406,245.3C418.5,288,431,288,443,288C455.4,288,468,288,480,277.3C492.3,267,505,245,517,229.3C529.2,213,542,203,554,202.7C566.2,203,578,213,591,229.3C603.1,245,615,267,628,256C640,245,652,203,665,208C676.9,213,689,267,702,261.3C713.8,256,726,192,738,144C750.8,96,763,64,775,53.3C787.7,43,800,53,812,53.3C824.6,53,837,43,849,37.3C861.5,32,874,32,886,37.3C898.5,43,911,53,923,96C935.4,139,948,213,960,245.3C972.3,277,985,267,997,240C1009.2,213,1022,171,1034,176C1046.2,181,1058,235,1071,245.3C1083.1,256,1095,224,1108,197.3C1120,171,1132,149,1145,128C1156.9,107,1169,85,1182,106.7C1193.8,128,1206,192,1218,192C1230.8,192,1243,128,1255,90.7C1267.7,53,1280,43,1292,58.7C1304.6,75,1317,117,1329,160C1341.5,203,1354,245,1366,218.7C1378.5,192,1391,96,1403,90.7C1415.4,85,1428,171,1434,213.3L1440,256L1440,320L1433.8,320C1427.7,320,1415,320,1403,320C1390.8,320,1378,320,1366,320C1353.8,320,1342,320,1329,320C1316.9,320,1305,320,1292,320C1280,320,1268,320,1255,320C1243.1,320,1231,320,1218,320C1206.2,320,1194,320,1182,320C1169.2,320,1157,320,1145,320C1132.3,320,1120,320,1108,320C1095.4,320,1083,320,1071,320C1058.5,320,1046,320,1034,320C1021.5,320,1009,320,997,320C984.6,320,972,320,960,320C947.7,320,935,320,923,320C910.8,320,898,320,886,320C873.8,320,862,320,849,320C836.9,320,825,320,812,320C800,320,788,320,775,320C763.1,320,751,320,738,320C726.2,320,714,320,702,320C689.2,320,677,320,665,320C652.3,320,640,320,628,320C615.4,320,603,320,591,320C578.5,320,566,320,554,320C541.5,320,529,320,517,320C504.6,320,492,320,480,320C467.7,320,455,320,443,320C430.8,320,418,320,406,320C393.8,320,382,320,369,320C356.9,320,345,320,332,320C320,320,308,320,295,320C283.1,320,271,320,258,320C246.2,320,234,320,222,320C209.2,320,197,320,185,320C172.3,320,160,320,148,320C135.4,320,123,320,111,320C98.5,320,86,320,74,320C61.5,320,49,320,37,320C24.6,320,12,320,6,320L0,320Z"></path></svg>